<svg xmlns="http://www.w3.org/2000/svg" viewBox="0 0 590.43 1272.3">
  <defs>
    <style>
      .cls-1 {
        fill: #35cd61;
      }
    </style>
  </defs>
  <title>Asset 2</title>
  <g id="Layer_2" data-name="Layer 2">
    <g id="Layer_1-2" data-name="Layer 1">
      <path class="cls-1" d="M0,1272.3s181.74-18.07,345.61-100.54c179.44-90.52,211-200.88,211-200.88S610.3,825,582.38,767.36c-25.55-60.41-183.51-22.55-183.51-22.55l-96,16.26s-110.55,6.46-143.24-1.72-95.37-53.84-95.37-53.84S39.7,687.94,18.16,638.27s-2.05-79.91-2.05-79.91,21.38-40.88,46.66-70.76S210.57,337.79,234.6,284.51,270.85,172,270.38,121.87,226.84,0,226.84,0s19,59-3.08,125.62-49.09,93.54-65.61,110.1-54.77,41.91-76.83,50.35C62.67,292.81,0,303.8,0,303.8Z"/>
    </g>
  </g>
</svg>
