<svg xmlns="http://www.w3.org/2000/svg" viewBox="0 0 772.52 1015.92"><defs><style>.cls-1{fill:#35cd61}</style></defs><title>Asset 1</title><g id="Layer_2" data-name="Layer 2"><g id="Layer_1-2" data-name="Layer 1"><path d="M348.78,426.39c-19.57-48.62-74.32-93.53-91.3-110.52C195.15,266.31,144.93,192,140.31,100.94c1.27-46.58,25.85-74.37,44.11-88.66A98.6,98.6,0,0,1,204.05,0c2.54.12,568.47,0,568.47,0V1015.92s-272.18-2.75-357.64-22.63C225.12,952.7,199.82,925.85,132.26,878.06c-17-11.65-42-35.54-61.2-60.69C12.24,724.16,21.78,739,21.78,739s-33.72-59.11-17.24-93.53c18.19-35.9,49.17-33.44,54.71-36.1,35.77-5.2,114.27-2.13,229.85-4.5C413.38,588.12,374.33,497.11,348.78,426.39Z" class="cls-1"/></g></g></svg>